<svg xmlns="http://www.w3.org/2000/svg" viewBox="0 0 762.5 454.84"><defs><style>.cls-1{fill:#231f20;}.cls-2{fill:#fff;}.cls-3{stroke:#000;stroke-miterlimit:10;stroke-width:5px;}</style></defs><g id="Layer_2" data-name="Layer 2"><g id="vast"><g id="sticker_bg"><path class="cls-1" d="M388.58,441.84c-56.21,0-111.61-10-160.22-28.88-46.82-18.2-86.11-44.19-114-75.39H42.25A29.3,29.3,0,0,1,13,308.28V146.56a29.3,29.3,0,0,1,29.25-29.29h72.06c27.94-31.2,67.23-57.19,114.05-75.39C277,23,332.37,13,388.58,13h0c112.17,0,216.53,39.82,274.28,104.27h57.39a29.3,29.3,0,0,1,29.25,29.29V308.28a29.3,29.3,0,0,1-29.25,29.29H662.86C605.11,402,500.75,441.84,388.58,441.84Z"/><path class="cls-1" d="M388.58,26h0m0,0C499.72,26,602.51,66,657,130.27h63.3a16.29,16.29,0,0,1,16.25,16.29V308.28a16.29,16.29,0,0,1-16.25,16.29H657c-54.44,64.32-157.23,104.27-268.37,104.27h0c-111.36,0-213.89-39.9-268.36-104.27h-78A16.29,16.29,0,0,1,26,308.28V146.56a16.29,16.29,0,0,1,16.25-16.29h78C174.69,65.9,277.22,26,388.58,26h0m0,0h0m0,402.84h0m0,0h0M388.58,0h0C330.77,0,273.74,10.29,223.65,29.76c-46.55,18.1-86.06,43.72-115,74.51H42.25A42.32,42.32,0,0,0,0,146.56V308.28a42.32,42.32,0,0,0,42.25,42.29H108.6c29,30.79,68.5,56.41,115.05,74.5,50.09,19.48,107.12,29.77,164.93,29.77s114.73-10.3,164.86-29.78c46.62-18.11,86.16-43.73,115.13-74.49h51.68a42.32,42.32,0,0,0,42.25-42.29V146.56a42.32,42.32,0,0,0-42.25-42.29H668.57c-29-30.76-68.51-56.38-115.13-74.49C503.31,10.3,446.3,0,388.58,0Z"/></g><g id="sticker_bg-2" data-name="sticker_bg"><path class="cls-2" d="M388.58,440.84c-56.09,0-111.37-10-159.86-28.81-46.84-18.21-86.11-44.23-114-75.46H42.25A28.3,28.3,0,0,1,14,308.28V146.56a28.3,28.3,0,0,1,28.25-28.29h72.5C142.61,87,181.88,61,228.72,42.81,277.21,24,332.49,14,388.58,14h0c112.09,0,216.34,39.82,273.84,104.27h57.83a28.3,28.3,0,0,1,28.25,28.29V308.28a28.3,28.3,0,0,1-28.25,28.29H662.42C604.92,401,500.67,440.84,388.58,440.84Z"/><path class="cls-2" d="M388.58,26h0m0,0C499.72,26,602.51,66,657,130.27h63.3a16.29,16.29,0,0,1,16.25,16.29V308.28a16.29,16.29,0,0,1-16.25,16.29H657c-54.44,64.32-157.23,104.27-268.37,104.27h0c-111.36,0-213.89-39.9-268.36-104.27h-78A16.29,16.29,0,0,1,26,308.28V146.56a16.29,16.29,0,0,1,16.25-16.29h78C174.69,65.9,277.22,26,388.58,26h0m0,0h0m0,402.84h0m0,0h0M388.58,2h0C331,2,274.24,12.24,224.37,31.63c-46.59,18.11-86.07,43.79-114.91,74.64H42.25A40.32,40.32,0,0,0,2,146.56V308.28a40.32,40.32,0,0,0,40.25,40.29h67.21c28.84,30.85,68.32,56.53,114.91,74.64,49.87,19.38,106.65,29.63,164.21,29.63s114.23-10.25,164.14-29.64c46.66-18.13,86.16-43.81,115-74.63h52.54a40.32,40.32,0,0,0,40.25-40.29V146.56a40.32,40.32,0,0,0-40.25-40.29H667.71c-28.83-30.82-68.33-56.5-115-74.63C502.81,12.25,446.05,2,388.58,2Z"/></g><path d="M356.66,363.31c.76-5.8-1.7-9.5-7.3-10.24s-8.93,2.2-9.69,8l-.47,3.52,5.39.71.51-3.89c.34-2.59,1.61-3.42,3.43-3.18s2.83,1.26,2.4,4.53c-1.37,10.47-12.9,10.74-14.3,21.42l-.58,4.46,16.47,2.16.68-5.18-10.77-1.42a3.41,3.41,0,0,1,.05-.78C343.26,377.47,355.17,374.71,356.66,363.31Z"/><path d="M366.54,364.15l-.82,19c-.25,5.85,2.69,9.32,8.33,9.56s8.86-3,9.11-8.81l.82-19c.25-5.85-2.69-9.32-8.33-9.56S366.79,358.31,366.54,364.15Zm11.71.14L377.4,384c-.11,2.61-1.3,3.55-3.13,3.47s-2.93-1.12-2.82-3.73L372.3,364c.11-2.61,1.3-3.55,3.13-3.47S378.36,361.68,378.25,364.29Z"/><path d="M395.46,388.18l.19,4.49,16.6-.69-.21-5.23-10.86.46a3.46,3.46,0,0,1-.09-.78c-.25-6,11-10.77,10.53-22.25-.25-5.85-3.31-9.07-8.95-8.84s-8.43,3.7-8.18,9.55l.15,3.55,5.43-.23-.17-3.91c-.1-2.61,1-3.65,2.83-3.73s3,.76,3.15,4.05C406.32,375.17,395,377.42,395.46,388.18Z"/><path d="M427.66,353.67c-.59,2.55-1.32,4.79-5.73,5.32l.49,4.05,4.41-.53,3.32,27.71,5.71-.68-4.36-36.33Z"/><polygon points="330.72 102.29 329.55 97.2 319.87 99.44 317.46 89 325.15 87.22 323.97 82.13 316.28 83.91 313.99 73.98 323.66 71.74 322.49 66.65 307.21 70.18 315.45 105.82 330.72 102.29"/><path d="M348.92,99.86c5.6-.75,8.05-4.46,7.27-10.26L352.49,62l-5.39.72,3.75,28c.35,2.59-.66,3.67-2.47,3.91s-3.08-.53-3.43-3.12l-3.76-28-5.7.77,3.71,27.61C340,97.68,343.33,100.61,348.92,99.86Z"/><path d="M373.49,97.11l-.63-14.89,2-.08c2.61-.11,3.81,1.09,3.95,4.49l.25,5.74c.12,3,.36,3.54.71,4.47l5.85-.25a10.85,10.85,0,0,1-.82-4.41l-.24-5.64c-.16-3.81-1.21-6.54-4.14-7.62,2.51-1.31,3.61-3.81,3.45-7.57l-.12-2.87c-.24-5.64-2.92-8.3-8.87-8.05l-8.67.37,1.55,36.55Zm1.44-31.45c2-.09,3,1,3.09,3.63l.15,3.61c.12,2.92-1.14,3.92-3.28,4l-2.25.09-.47-11.22Z"/><path d="M403.53,97.47c5.64.26,8.88-2.94,9.15-8.78l.89-19c.27-5.85-2.66-9.33-8.3-9.6s-8.87,2.94-9.15,8.79l-.88,19C395,93.72,397.9,97.21,403.53,97.47Zm-1.64-28.7c.12-2.61,1.31-3.55,3.14-3.46s2.93,1.13,2.81,3.74l-.92,19.73c-.12,2.61-1.31,3.55-3.14,3.47s-2.93-1.13-2.81-3.74Z"/><path d="M430,85.58l2.7.37c5.69.77,8.92-2,9.71-7.8l.64-4.72c.8-5.8-1.57-9.34-7.27-10.11l-8.39-1.15-4.94,36.25,5.7.78Zm2.38-17.45,2.7.36c1.81.25,2.68,1.22,2.33,3.8l-.74,5.44c-.36,2.59-1.45,3.29-3.27,3l-2.69-.37Z"/><polygon points="464.83 100.9 455.15 98.66 457.57 88.22 465.26 90 466.44 84.91 458.75 83.13 461.04 73.2 470.72 75.44 471.9 70.35 456.62 66.81 448.37 102.45 463.65 105.99 464.83 100.9"/><path d="M720.87,126.65h-63.3c-54.44-64.15-157.23-104-268.37-104h0c-111.36,0-213.89,39.79-268.36,104h-78A16.24,16.24,0,0,0,26.62,142.9v169a16.25,16.25,0,0,0,16.25,16.25h78.32l2,2.18c23.35,26.56,56.06,49.66,94.6,66.81,38.34,17.05,82.69,28.26,128.41,32.5h0v4h0l10,3.07h0v-6.83a2.83,2.83,0,0,1,1.89-2.73,2.8,2.8,0,0,1,3.68,2.65v8.63h0l4.37,1.35h0v-9.7a2.83,2.83,0,0,1,1.89-2.73,2.8,2.8,0,0,1,3.68,2.65v11.5h0l2.92.9h2.06V429.92a2.84,2.84,0,0,1,1.88-2.73,2.8,2.8,0,0,1,3.69,2.65v12.6h18.89v-2.39h19.63a1.59,1.59,0,0,0,1.59-1.59v-6.1h1.06a1.59,1.59,0,0,0,1.59-1.59V414.59a1.59,1.59,0,0,0-1.59-1.59h-1.06V406.9a1.6,1.6,0,0,0-1.59-1.6H401.05v-2.38H382.16v12.51a2.79,2.79,0,1,1-5.57.08V402.92h-2.06l-2.92.9h0v11.76a2.88,2.88,0,0,1-2.26,2.87,2.79,2.79,0,0,1-3.31-2.74V405.53h0l-4.37,1.35h0v8.5a2.88,2.88,0,0,1-2.27,2.87,2.78,2.78,0,0,1-3.3-2.74V408.6h0l-10,3.07h0v3.41h0c-43.69-4.19-86-14.93-122.52-31.19-33-14.67-61.32-33.81-82.71-55.74h48c34.45,29,82.74,49.82,137.22,59h0l.82-4.93h0c-51.17-8.58-96.72-27.58-130.12-54H582.29c-34.32,27.17-81.35,46.42-134.14,54.67h0l.77,4.94h0c56.13-8.77,105.91-29.83,141.27-59.61H637.5c-44.15,45.25-116.54,77-198,86.19l-3.34.31h0l1.33,14.44h0l3.4-.32h.14c46.32-5.2,90.92-17.64,129-36,35.5-17.1,65.47-39.37,87.08-64.64h63.73a16.26,16.26,0,0,0,16.25-16.25v-169A16.25,16.25,0,0,0,720.87,126.65ZM401.05,427.05V408.49h18V413H410.4a1.59,1.59,0,0,0-1.59,1.59h0a1.59,1.59,0,0,0,1.59,1.59h10.12l.16,0h1.06v13H410.4a1.6,1.6,0,0,0-1.59,1.6h0a1.59,1.59,0,0,0,1.59,1.59h8.69v4.51h-18ZM389.2,37.16c101.39,0,195.2,34,248.8,89.49H591.33c-28.69-24.57-67-43.27-111.24-54.29h0l-1.21,4.85h0C520.1,87.47,556,104.45,583.5,126.65H195.59C223.1,104.49,258.89,87.52,300,77.26h0l-1.21-4.85h0c-44.21,11-82.41,29.71-111.06,54.24H140.39C194,71.14,287.58,37.16,389.2,37.16ZM722.62,311.9a1.76,1.76,0,0,1-1.75,1.75h-678a1.75,1.75,0,0,1-1.75-1.75v-169a1.75,1.75,0,0,1,1.75-1.75h678a1.75,1.75,0,0,1,1.75,1.75Z"/><path class="cls-2" d="M158.13,237.78v-.44a1.2,1.2,0,0,0-.59-1.18A1.2,1.2,0,0,1,157,235a.29.29,0,0,1,.08-.22.34.34,0,0,0,.07-.22,6.62,6.62,0,0,0-1.4-4.35c-.94-1.13-1.89-2.29-2.88-3.47q-.58-2.35-4-4.72a62.31,62.31,0,0,0-6.49-4,7.31,7.31,0,0,0-4.49-1.84,20.78,20.78,0,0,1-5.53-1.25,12.13,12.13,0,0,1-2.36-.45,6.68,6.68,0,0,1-2.66-1.17,4.55,4.55,0,0,0-2.5-.82,8.67,8.67,0,0,1-2.66-.51,30.18,30.18,0,0,1-3.24-1.4c-1.08-.54-2.12-1.11-3.1-1.7a8.73,8.73,0,0,1-2.36-2,3.81,3.81,0,0,1-.88-2.43,7.87,7.87,0,0,1,.07-1.11,7.58,7.58,0,0,0,.08-1.1v-.89a2.3,2.3,0,0,1,.29-1.47,1,1,0,0,1-.29-.74c0-.3.39-.66,1.18-1.11s1.74-.9,2.87-1.4a25.52,25.52,0,0,1,3.61-1.25,13.47,13.47,0,0,1,3.39-.52,4.65,4.65,0,0,1,3.18.89,3.62,3.62,0,0,0,2.58.88,9.8,9.8,0,0,1,3.83.81,9.92,9.92,0,0,1,3.1,2,.68.68,0,0,1,.73.52.69.69,0,0,0,.74.52,2.69,2.69,0,0,0,2,1.62,12.28,12.28,0,0,0,2.58.29c1,0,2-.68,3.17-2.06a12.1,12.1,0,0,0,2.29-4,4.92,4.92,0,0,1,1.32-3.39,7,7,0,0,0,1.63-4,8,8,0,0,1,1-2.35,8.17,8.17,0,0,0,1-2.51.76.76,0,0,0,.15-.81.76.76,0,0,1,.15-.81,15.76,15.76,0,0,0-2.07-3.17,9.11,9.11,0,0,0-2.95-2.29,3.16,3.16,0,0,0-1.55-1.25c-.64-.25-1.3-.47-2-.67s-1.35-.39-2-.59a4,4,0,0,1-1.69-1,12.64,12.64,0,0,1-1.85-.44c-.64-.2-1.25-.39-1.84-.59a7.67,7.67,0,0,1-1.1-.29c-.65-.2-1.43-.4-2.36-.59s-1.92-.37-2.95-.52a19.36,19.36,0,0,0-2.73-.22,7.78,7.78,0,0,0-1.11.07,6.65,6.65,0,0,1-1,.08,5.45,5.45,0,0,1-2.06-.37,5.26,5.26,0,0,0-2.06-.37h-1.77a11.4,11.4,0,0,0-3.69.51,10.1,10.1,0,0,1-3.39.52,4.52,4.52,0,0,1-.74-.07,4.58,4.58,0,0,0-.74-.08,10.09,10.09,0,0,0-3.24.67c-1.28.44-2.36.86-3.24,1.25a4.32,4.32,0,0,1-1.7.81c-.64.15-1.28.32-1.92.52s-1.25.42-1.84.66a2.57,2.57,0,0,0-1.33,1.25c-.59.3-1.15.57-1.69.81s-1.11.52-1.7.82a13.33,13.33,0,0,1-1,1.4,14.91,14.91,0,0,1-1.25,1.4,5.23,5.23,0,0,0-2.51,2.43A9,9,0,0,1,87.94,186,20.42,20.42,0,0,1,86.32,189a12.39,12.39,0,0,0-1.47,3.25,6.47,6.47,0,0,0-.59,1.55c-.3.93-.59,2-.89,3.17s-.56,2.33-.81,3.46a12.79,12.79,0,0,0-.37,2.44c0,.39,0,.59.15.59,0,.39,0,.78-.07,1.18a9.2,9.2,0,0,0-.08,1.17,13.62,13.62,0,0,0,.59,4,11.79,11.79,0,0,1,.59,3.39,6.25,6.25,0,0,1-.07,1,5.24,5.24,0,0,0-.08.88,5.05,5.05,0,0,0,.59,2.22,2.91,2.91,0,0,0,1.33,1.47,6.21,6.21,0,0,0,1.77,3.91c1,.93,2,1.89,3,2.87,0,.2.24.52.74,1a19.94,19.94,0,0,0,1.77,1.4,16.94,16.94,0,0,0,2.14,1.33c.73.39,1.35.69,1.84.89q3.09,1.9,6.71,3.68a29.55,29.55,0,0,0,7.44,2.51,5.35,5.35,0,0,1,1.55.66,5.51,5.51,0,0,0,2.58.67,6.15,6.15,0,0,1,3,1,5.21,5.21,0,0,0,3,.88h.3c1.57,1,3.14,1.94,4.71,2.88a7.17,7.17,0,0,1,3.25,4.2,3.85,3.85,0,0,1,.22,1.7,1.38,1.38,0,0,0,.66,1.4v.14a1,1,0,0,0,.08.45.62.62,0,0,1,.07.29.57.57,0,0,1-.15.44v.45a2.35,2.35,0,0,1-.73,1.84,10.9,10.9,0,0,0-1.33,1.4,3.76,3.76,0,0,1-1.62,3.32,21.89,21.89,0,0,1-3.25,1.84,6,6,0,0,0-1.47-.15,10.57,10.57,0,0,0-3.1.45,11.38,11.38,0,0,1-3.24.44,2,2,0,0,0-1.26-.74c-.54-.1-1.1-.17-1.69-.22s-1.16-.12-1.7-.22a2.56,2.56,0,0,1-1.4-.74,6.49,6.49,0,0,1-2.8-1.55,10.46,10.46,0,0,0-2.8-1.84c-.59-.49-1.25-1.06-2-1.7A19,19,0,0,0,99,251.94a1.85,1.85,0,0,1-1.47-1.33,1.83,1.83,0,0,0-1.33-1.33,12.54,12.54,0,0,0-1.4-1.18,3.33,3.33,0,0,0-2-.59,5.94,5.94,0,0,0-1.92.3,3.35,3.35,0,0,1-1.1,1.33c-.45.29-.91.61-1.4,1A10.3,10.3,0,0,0,87,251.27a3,3,0,0,0-.81,1.7,5,5,0,0,1-1,1.84l-1.41,1.7a9.58,9.58,0,0,0-1.91,2.8,9.47,9.47,0,0,1-1.92,2.8.79.79,0,0,1-.52.81.81.81,0,0,0-.51.81c-.2.69-.42,1.43-.67,2.22a6.64,6.64,0,0,0-.36,1.77,5.74,5.74,0,0,0,1.32,4,10,10,0,0,0,3.25,2.36c0-.1.12-.05.37.14l.88.74q.51.45,1,.81c.29.25.49.42.59.52a3.68,3.68,0,0,0,2.43,1.33,2.65,2.65,0,0,1,2.14,1.47c.69.39,1.33.79,1.92,1.18a6.41,6.41,0,0,0,2.06.88,6.47,6.47,0,0,0,1.55.59l3,1,3,1c.89.3,1.43.49,1.62.59h.3a.36.36,0,0,1,.37.22.67.67,0,0,0,.37.37,21.82,21.82,0,0,1,3.09.22,19.53,19.53,0,0,0,3,.22,9.14,9.14,0,0,0,3-.44c2.56-.2,5.14-.29,7.74-.29a34.39,34.39,0,0,0,7.3-.74,17.11,17.11,0,0,0,5.75-1.25,26.8,26.8,0,0,1,4.72-1.55,9.49,9.49,0,0,1,4-2.8,8.22,8.22,0,0,0,3.84-2.95,3.4,3.4,0,0,0,.88-1,2,2,0,0,1,1-.81,3.61,3.61,0,0,1,1.85-1.4,2.07,2.07,0,0,0,1.4-1.55c.68-1.08,1.32-2.19,1.91-3.32s1.18-2.29,1.77-3.47a3.15,3.15,0,0,0,1-1.4,9.75,9.75,0,0,0,.44-1.77,10.28,10.28,0,0,1,.44-1.84,4.17,4.17,0,0,1,1-1.62c0-.59,0-1.33.08-2.21s.09-1.79.14-2.73a15.48,15.48,0,0,1,.3-2.43c.15-.69.32-1.08.51-1.18a51.89,51.89,0,0,1-.29-5.53A17.6,17.6,0,0,0,158.13,237.78Z"/><path class="cls-2" d="M342.45,274.65a4.16,4.16,0,0,0-.74-2.51,6.55,6.55,0,0,1-1-2.21c-.1-.69-.2-1.35-.29-2a4.76,4.76,0,0,0-.59-1.7,5.43,5.43,0,0,1-1.62-3.09c-.3-1.38-.55-2.56-.74-3.54A7.58,7.58,0,0,1,336,257c-.35-1-.67-2.09-1-3.17s-.62-2.12-1-3.1a7.72,7.72,0,0,0-1.4-2.51,1.57,1.57,0,0,1,.07-.51,1.62,1.62,0,0,0,.08-.52,3.82,3.82,0,0,0-1-2.8,4.82,4.82,0,0,1-1.33-2.66v-.44a2.92,2.92,0,0,0-.67-2.14,3.74,3.74,0,0,1-.95-1.69,4.18,4.18,0,0,0,.14-1.18,3.13,3.13,0,0,0-.88-2.43,3.16,3.16,0,0,1-.89-2.44c0,.2-.1-.05-.29-.73a2,2,0,0,0-.89-1.33v-.59a5.08,5.08,0,0,0-.88-3,3.92,3.92,0,0,1-.89-2,2.46,2.46,0,0,1,.08-.59,2.32,2.32,0,0,0,.07-.59V222a14.15,14.15,0,0,1-2.21-6.19,3.78,3.78,0,0,1-1.4-3,7.18,7.18,0,0,0-1-3.47,3,3,0,0,0-1-1.91,2.65,2.65,0,0,1-.81-2.07,2,2,0,0,1,.15-.88q-.58,0-.81-.81a15.09,15.09,0,0,1-.37-1.85c-.1-.68-.22-1.37-.37-2.06a1.69,1.69,0,0,0-1-1.33,1,1,0,0,1,.08-.44,1.18,1.18,0,0,0,.07-.44A3,3,0,0,0,314.8,195a2.84,2.84,0,0,1-1.1-2.44,3.81,3.81,0,0,1,.15-1.18,2,2,0,0,1-1-1.32c-.15-.59-.28-1.18-.37-1.77a17,17,0,0,0-.37-1.7,3.19,3.19,0,0,0-.81-1.4,10,10,0,0,0-1.25-4.42,11.44,11.44,0,0,1-1.41-4.43c-.68-.68-1.32-1.27-1.91-1.77a13,13,0,0,0-1.92-1.32,4.18,4.18,0,0,0-2.06-.59,14.13,14.13,0,0,0-2,.14c-.64.1-1.21.2-1.7.3a7.7,7.7,0,0,0-1.77-.15A10.56,10.56,0,0,0,296,173a8.09,8.09,0,0,1-1,.07,13.85,13.85,0,0,1-2,.15h-1.84a70.58,70.58,0,0,1-7.3-.37,68,68,0,0,0-7.3-.37c-1.08,0-2.14,0-3.17.15a8.29,8.29,0,0,0-3.17,1,4.38,4.38,0,0,1-1.7,1.84,3.61,3.61,0,0,0-1.55,1.85v1a5,5,0,0,1-1.47,3.68,2.93,2.93,0,0,0-.74,2.14,4.87,4.87,0,0,1-.59,2.44,3.15,3.15,0,0,1-.81,2.21,4.64,4.64,0,0,0-1.1,2.06,2.53,2.53,0,0,0-.23,1.4,2.52,2.52,0,0,1-.22,1.4,4.68,4.68,0,0,0-1.25,3.25,5.87,5.87,0,0,1-1.25,3.54,3.06,3.06,0,0,0-1,2.43,4,4,0,0,1-.59,2.28,3.48,3.48,0,0,0-.73,1.63c-.1.59-.2,1.2-.3,1.84a11,11,0,0,1-.44,1.84,3.77,3.77,0,0,1-.88,1.48,5.26,5.26,0,0,1-1.11,3,4.74,4.74,0,0,0-1,3.09v.45a5.42,5.42,0,0,0-1.4,2.87,8.44,8.44,0,0,1-1,2.88l-.59,1.47c-.2.49-.39,1-.59,1.62a2.73,2.73,0,0,0-.88,2.22,3.56,3.56,0,0,1-.74,2.35,38.91,38.91,0,0,1-1.4,4.06,39.56,39.56,0,0,0-1.4,4.05,18.37,18.37,0,0,0-.52,1.92,12,12,0,0,1-.51,1.77c0-.19-.1-.07-.3.37s-.44,1-.74,1.62l-.81,1.77c-.24.54-.42.81-.51.81a2.17,2.17,0,0,1,.29,1.18,2.24,2.24,0,0,1-.81,1.84,2.27,2.27,0,0,0-.81,1.85v.74a3.53,3.53,0,0,1-.3,1.69c-.19.35-.46.81-.81,1.4s-.78,1.43-1.32,2.51a34.58,34.58,0,0,0-1.85,5v.74a2.42,2.42,0,0,1-.81,2,3.26,3.26,0,0,0-1.1,1.7v.59a2.72,2.72,0,0,1-.67,1.91,2.78,2.78,0,0,0-.66,1.92,5.26,5.26,0,0,1-.66,2.73,6.47,6.47,0,0,0-.67,3.32,3.49,3.49,0,0,0,1.92,3.17,8.47,8.47,0,0,0,4.28,1.1c.68,0,1.35,0,2-.07s1.25-.08,1.84-.08a22,22,0,0,1,3.17.23,23.54,23.54,0,0,0,3.17.22,4.6,4.6,0,0,0,2.43-.59,4.52,4.52,0,0,1,2.44-.59,20.38,20.38,0,0,1,2.5.29,25.79,25.79,0,0,0,4,.3,4.14,4.14,0,0,0,2.22-1c.88-.64,1.71-1.3,2.5-2a4.86,4.86,0,0,0,.74-2.14,19,19,0,0,1,.44-2.43,3.58,3.58,0,0,0,1.18-2.81,11.93,11.93,0,0,1,.74-3.53,25.55,25.55,0,0,1,.59-2.95,5.77,5.77,0,0,1,1-1.92,2.16,2.16,0,0,1,1.84-.89c.79,0,1.6,0,2.43-.07s1.7-.07,2.58-.07c1.09,0,2.17.05,3.25.14s2.16.15,3.24.15a5.83,5.83,0,0,0,2.14-.37l1.7-.66a50,50,0,0,1,5.6.3,57,57,0,0,0,6.05.29h2.13a7.43,7.43,0,0,0,2-.29H304a8.51,8.51,0,0,1,2.58.44c.93.29,1.4,1.13,1.4,2.5v1a1.8,1.8,0,0,0,.88,1.69,1.82,1.82,0,0,1,.89,1.7,8.09,8.09,0,0,0-.3,1.62,4,4,0,0,0,1,2.73,4,4,0,0,1,1,2.73,8.09,8.09,0,0,1-.3,1.62,6.09,6.09,0,0,0,4.06,3.32,22.85,22.85,0,0,0,6.12.81,20.31,20.31,0,0,0,3-.22,19,19,0,0,1,3-.23q2.07,0,4.35.15t4.35.15h1.48l.15-.15a4.61,4.61,0,0,0,1.32.3,2.71,2.71,0,0,0,1.7-.52,4.54,4.54,0,0,0,1.1-1.25c.3-.49.62-1,1-1.48a4.16,4.16,0,0,1,1.26-1.18,3,3,0,0,0-.74-2.21A2.79,2.79,0,0,1,342.45,274.65Zm-48.73-33.92h-1.55a25.59,25.59,0,0,1-5.24-.51,24.73,24.73,0,0,0-5.23-.52h-1.4a7,7,0,0,0-1.4.15,5.11,5.11,0,0,0-1.33-1.4,1.92,1.92,0,0,1-.88-1.55c.19-.79.39-1.57.59-2.36s.37-1.35.51-2a11.85,11.85,0,0,1,.52-1.7,12.23,12.23,0,0,1,1.1-2.43,5.16,5.16,0,0,0,.67-2.73V225a11.68,11.68,0,0,1,1.1-2.21,4.74,4.74,0,0,0,.67-2.65v-.74a8.3,8.3,0,0,1,.66-1.55c.25-.44.52-.91.81-1.4a6.25,6.25,0,0,0-.07-1,6.25,6.25,0,0,1-.08-1,3.49,3.49,0,0,1,1-2.58,3.91,3.91,0,0,0,1-2.88,6.25,6.25,0,0,1,.3-.74,1.73,1.73,0,0,0,.14-.73V207a12.92,12.92,0,0,1,.81-2.06c.35-.69,1.16-1,2.44-1a1.47,1.47,0,0,1,1,.29,7.39,7.39,0,0,1,.22,2.44,1.51,1.51,0,0,0,1.4,1.69,4.32,4.32,0,0,0,1.26-.74,2.1,2.1,0,0,1,1.4-.44.86.86,0,0,1-.37.81l-.89.52a3.15,3.15,0,0,0-.88.74,2.26,2.26,0,0,0-.37,1.47,6.76,6.76,0,0,0,.29,2.07,3,3,0,0,1,1.26,2.8,4.77,4.77,0,0,0,1,3.24,6.76,6.76,0,0,0,.88,2.88,5.85,5.85,0,0,1,.74,3,22.06,22.06,0,0,1,1.18,2.58c.49,1.23,1,2.56,1.4,4s.83,2.78,1.18,4.06a12.36,12.36,0,0,1,.51,2.65,1.25,1.25,0,0,1-.51,1.18,3.91,3.91,0,0,1-1.25.44l-1.55.3a2.32,2.32,0,0,0-1.26.59A5.22,5.22,0,0,1,293.72,240.73Z"/><path class="cls-2" d="M508.56,229.82a6.19,6.19,0,0,0-2.43.74,3.19,3.19,0,0,1,.29,1.62v2.21a2.46,2.46,0,0,1,.67,2.36,3.56,3.56,0,0,0,.51,2.65,3.07,3.07,0,0,0,.15,1.11,2.61,2.61,0,0,1,.15,1v.59a2.88,2.88,0,0,1,.59,2.06,12.29,12.29,0,0,1-.08,1.4,11.39,11.39,0,0,0-.07,1.26,6.62,6.62,0,0,0,.59,2.95,6.22,6.22,0,0,1,.59,2.8,11.89,11.89,0,0,1-.15,1.84,12,12,0,0,0-.15,1.84,5.36,5.36,0,0,0,.67,2.66,4.8,4.8,0,0,1,.66,2.36,2.18,2.18,0,0,1-.44,1.1,2.15,2.15,0,0,0-.44,1.11,2.24,2.24,0,0,0,.73,1.62,2.45,2.45,0,0,1,.74,1.77,2.55,2.55,0,0,1-.59,1.62,10.62,10.62,0,0,0,1,4.57,11.73,11.73,0,0,1,1,5,1.29,1.29,0,0,1-.15.59,1.29,1.29,0,0,0-.15.59.93.93,0,0,0,.74,1,4,4,0,0,1,1.33.66A1.87,1.87,0,0,0,516.3,282a9.58,9.58,0,0,1,2.66.22v.14l2.43.3a22.92,22.92,0,0,0,2.73.15h2.58a3.78,3.78,0,0,1,1.1.14H529c1.08,0,2.22.05,3.39.15s2.36.15,3.54.15a9.69,9.69,0,0,0,5.75-1.48q2.07-1.47,2.36-5.3a5,5,0,0,1-.95-2.88c-.06-1.13-.13-2.23-.23-3.32a7.19,7.19,0,0,1-.44-1.1A6.37,6.37,0,0,0,542,268a4.55,4.55,0,0,0,.29-1.18,4.32,4.32,0,0,0-.22-1.4c-.14-.44-.32-.91-.51-1.4a23.43,23.43,0,0,0-.52-5.09,23.36,23.36,0,0,1-.51-5.08,8.41,8.41,0,0,1-1-3.84,41.36,41.36,0,0,0-.37-4.27,1.72,1.72,0,0,1-.59-1.48v-2.21a8.51,8.51,0,0,1-.74-3.61,14,14,0,0,0-.44-3.62,5.25,5.25,0,0,0-.67-2.65,4.56,4.56,0,0,1-.66-2.21,5.83,5.83,0,0,1,.15-1.26,5.6,5.6,0,0,0,.15-1.25,1.81,1.81,0,0,0-.74-1.47c0-.79,0-1.55-.07-2.29a8.5,8.5,0,0,0-.52-2.28,1.05,1.05,0,0,1-.74-1,2.61,2.61,0,0,1,.3-1.18,3,3,0,0,0,.29-1.32,2,2,0,0,0-.15-.89v-.15c0-.39-.17-.59-.51-.59s-.52-.29-.52-.88a2,2,0,0,1,.22-1,2.13,2.13,0,0,0,.22-1.1V213a10,10,0,0,1-1.1-2.36,9.27,9.27,0,0,1-.37-2.8,3.23,3.23,0,0,1,.07-.66,3.47,3.47,0,0,0,.08-.67,4,4,0,0,1-.89-2.21,23.54,23.54,0,0,1-.15-2.65,23.91,23.91,0,0,0-.14-2.58,4,4,0,0,0-.89-2.14,6.89,6.89,0,0,0,.15-1.62,9.35,9.35,0,0,0-.15-1.7c-.1-.54-.2-1.11-.29-1.7a2.71,2.71,0,0,1-.74-2.21v-1.77a1.2,1.2,0,0,0-.29-1,.93.93,0,0,1-.3-.81l.15-.29a2.34,2.34,0,0,1-.3-1,4,4,0,0,1,.15-1.11,3.92,3.92,0,0,0,.15-1.11q0,.3-.3-1.47a6.62,6.62,0,0,0-1-2.8,2,2,0,0,0,.15-.89,3.42,3.42,0,0,0-.81-2.28q-.81-1-.81-.81v-.3a1.64,1.64,0,0,0-.89-.81,2.94,2.94,0,0,1-1-.66c-1.08.1-2.16.17-3.24.22s-2.17.07-3.25.07q-3.39,0-6.71-.15t-6.71-.14a50.76,50.76,0,0,0-6.26.37,5.22,5.22,0,0,0-4.35,3.46c-.5.1-.74.49-.74,1.18v.89a3.76,3.76,0,0,1-.74,2.21,3.74,3.74,0,0,0-.74,2.21,16.88,16.88,0,0,0-.81,4.87,6.4,6.4,0,0,1-1.54,4.27,12.55,12.55,0,0,1-.67,1.84,11.15,11.15,0,0,0-.66,2,4.44,4.44,0,0,1-.81,3.9,5.66,5.66,0,0,0-1.26,2.73,3.3,3.3,0,0,0,.08.52,3.23,3.23,0,0,1,.07.66,8.67,8.67,0,0,1-.29,1.92,3.68,3.68,0,0,1-.59,1.47,5.1,5.1,0,0,0-1,2.21c-.19.89-.39,1.8-.59,2.73s-.41,1.82-.66,2.66a6,6,0,0,1-1.1,2.13,6,6,0,0,1,.14,1.33,4.43,4.43,0,0,1-1,3,4.47,4.47,0,0,0-.95,3,13.07,13.07,0,0,1-1,3.31c-.54,1.33-1.21,2-2,2q-.3,0-.3-.15a5.5,5.5,0,0,1-2.65-3.17,31.81,31.81,0,0,1-1.18-4.35,3.44,3.44,0,0,1-1-3,4.63,4.63,0,0,0-.74-3.17,4.89,4.89,0,0,1-.44-1.25,7.08,7.08,0,0,1-.15-1.55v-.59a5,5,0,0,1-1.18-3,6.55,6.55,0,0,0-1-3.17,4.7,4.7,0,0,0-.59-2.36,5.23,5.23,0,0,1-.59-2.65,6,6,0,0,1,.14-1.33l-.81-1.11c-.24-.34-.51-.71-.81-1.1a8.76,8.76,0,0,0,.3-1.48,3.3,3.3,0,0,0-.67-2.06,5.75,5.75,0,0,1-.95-1.92c-.1-1-.2-1.86-.3-2.65a10.2,10.2,0,0,0-.59-2.36,20.38,20.38,0,0,1-1.4-4.35,39.85,39.85,0,0,0-1.25-4.57,11.23,11.23,0,0,0-2.07-3.69,5.38,5.38,0,0,0-4-1.7h-1.62c-1.48,0-2.95,0-4.43.08s-2.94.07-4.42.07-3.1-.05-4.57-.15-3.05-.14-4.72-.14a14.55,14.55,0,0,0-4.27.44,5,5,0,0,0-2,1.11,5.08,5.08,0,0,0-1,1.47,5.88,5.88,0,0,1-1.25,1.7,5.22,5.22,0,0,0,.07.88,4.69,4.69,0,0,1,.08.74,15.3,15.3,0,0,1-.67,4.64,15.74,15.74,0,0,0-.66,4.65c0,.1,0,.14.15.14l.14.15a3,3,0,0,1-.59,1.85,3.06,3.06,0,0,0-.59,1.84,3.52,3.52,0,0,0,.15,1,3.41,3.41,0,0,1,.15,1,6.33,6.33,0,0,1-.59,2.72,6.77,6.77,0,0,0-.59,2.88,2.41,2.41,0,0,0,.15.74,2.63,2.63,0,0,1,.14.73,1.43,1.43,0,0,1-.51,1,1.56,1.56,0,0,0-.52,1.11,3.52,3.52,0,0,0,.15,1,3.9,3.9,0,0,1,.15,1.1,1.62,1.62,0,0,1-.15.74,6.44,6.44,0,0,0-.88,3.39,19.47,19.47,0,0,1-.3,3.54,3.14,3.14,0,0,0-.74,2.06,3.41,3.41,0,0,0,.15,1,3.52,3.52,0,0,1,.15,1,.29.29,0,0,1-.08.22.6.6,0,0,0-.07.37,3,3,0,0,0-.74,2.21v1.77a5.35,5.35,0,0,1-.73,3.1,3.9,3.9,0,0,0-.74,2.36,2.94,2.94,0,0,0,.22,1,3.28,3.28,0,0,1,.22,1.18,3.71,3.71,0,0,1-.22,1.33,8.33,8.33,0,0,0-.37,1.32,4.12,4.12,0,0,0-.22,1.26c-.05.64-.12,1.3-.22,2a14.91,14.91,0,0,1-.37,1.84q-.23.81-.66.81v.3a1.15,1.15,0,0,0,.22.73,1.2,1.2,0,0,1,.22.74v.15a.6.6,0,0,1,.15.44,1,1,0,0,1-.59,1c-.4.2-.59.69-.59,1.48a4.11,4.11,0,0,0,.22,1.55,2.14,2.14,0,0,1,.22.81,1.35,1.35,0,0,1-.44,1.1,1.82,1.82,0,0,0-.59,1.11c0,1.08-.05,2.19-.15,3.32a19.57,19.57,0,0,1-.59,3.32,3.2,3.2,0,0,1,.15,1,3.54,3.54,0,0,1-.67,2.21,3.6,3.6,0,0,0-.66,2.21v.44a3.66,3.66,0,0,0-.37,1.18,10.8,10.8,0,0,0-.07,1.33V264a14.86,14.86,0,0,1-.74,3.69,47.78,47.78,0,0,0-1.18,5v.88a9.71,9.71,0,0,1-.22,2.07,9.05,9.05,0,0,0-.22,1.92,5,5,0,0,0,1.25,2.94c.84,1.09,2.24,1.63,4.2,1.63a13.73,13.73,0,0,0,2.88-.3,14.35,14.35,0,0,1,2.88-.29,6.63,6.63,0,0,1,3.24.73,7.87,7.87,0,0,0,1.11-.07,7.63,7.63,0,0,1,1.1-.07c1,0,2,.05,3,.14a29.14,29.14,0,0,0,2.95.15h1.47a4.1,4.1,0,0,0,1.48-.29,2.74,2.74,0,0,0,1.25-.52,11.53,11.53,0,0,0,1.55-1.18,14.69,14.69,0,0,0,1.25-1.25,1.65,1.65,0,0,0,.52-.89,2.26,2.26,0,0,0-.22-1,2.23,2.23,0,0,1-.22-1,3.56,3.56,0,0,1,.59-1.62,4.72,4.72,0,0,0,.59-2.36,4.77,4.77,0,0,0-.15-1.18,4.26,4.26,0,0,1-.15-1,1.91,1.91,0,0,1,.3-1,2.58,2.58,0,0,0,.29-1.26,2.23,2.23,0,0,0-.29-1.1,2.47,2.47,0,0,1-.3-1.26,1.91,1.91,0,0,1,.81-1.62,2,2,0,0,0,.81-1.77,2.57,2.57,0,0,0-.29-1.25,2.15,2.15,0,0,1-.3-1.11,4.66,4.66,0,0,1,.45-2,5.07,5.07,0,0,0,.44-2.13,2.55,2.55,0,0,0-.22-1,2.24,2.24,0,0,1-.22-.81c0-.2,0-.3.14-.3s.15-.1.15-.29v-.15a2.64,2.64,0,0,0,.59-1.92,5.22,5.22,0,0,0-.07-.88,5.35,5.35,0,0,1-.08-.89,1.82,1.82,0,0,1,.52-1.55,1.62,1.62,0,0,0,.52-1.4v-.59a6.35,6.35,0,0,0-.08-.81,7.63,7.63,0,0,1-.07-1.1,3.19,3.19,0,0,1,.44-1.63,2.46,2.46,0,0,1-.15-1,3.65,3.65,0,0,1,.67-2.14,4.17,4.17,0,0,0,.66-2.43,1.18,1.18,0,0,0-.07-.44,1,1,0,0,1-.08-.44,2.55,2.55,0,0,0,.45-1.77,6.45,6.45,0,0,0-.3-2.07,6.86,6.86,0,0,1,.66-2.8c.45-1,1.06-1.47,1.85-1.47a1.78,1.78,0,0,1,1.69,1,11.1,11.1,0,0,0,1.11,1.7,2,2,0,0,0-.15.88,4.48,4.48,0,0,0,.67,2.51,11.68,11.68,0,0,1,1.1,2.21,2.21,2.21,0,0,0-.29.89,5.22,5.22,0,0,0,.95,3,6,6,0,0,1,1,3.47V244a4.38,4.38,0,0,0,.59,1.84,3.25,3.25,0,0,1,.44,1.84v.89a16.19,16.19,0,0,1,2.22,9,1.8,1.8,0,0,1,1,1.11,6.79,6.79,0,0,1,.37,1.69c.05.59.12,1.16.22,1.7a3.21,3.21,0,0,0,.59,1.4,13,13,0,0,0,.59,2.95l.88,2.65a5.32,5.32,0,0,0,.89,3.25,5,5,0,0,1,.88,3.09A7.69,7.69,0,0,1,464,277a8.91,8.91,0,0,0,.66,1.4,10.16,10.16,0,0,0,1.33,1.91,10.92,10.92,0,0,0,1.77,1.7,3,3,0,0,0,1.84.74,7.33,7.33,0,0,0,1.47-.15,7.36,7.36,0,0,1,1.48-.15,8.83,8.83,0,0,1,1.32.08,13.21,13.21,0,0,0,1.33.07,31,31,0,0,0,3.76-.22,32.32,32.32,0,0,1,3.91-.22,7.87,7.87,0,0,1,1.11.07,8.9,8.9,0,0,0,1.25.07,10.69,10.69,0,0,0,2.51-1.69c.68-.64,1.42-1.3,2.21-2v-.44a2.22,2.22,0,0,1,.88-1.77,2,2,0,0,1-.15-.89,6.33,6.33,0,0,1,.15-1.4,6.33,6.33,0,0,0,.15-1.4v-.59a4.84,4.84,0,0,0,.88-1.4,15.14,15.14,0,0,0,.74-1.92c.2-.64.37-1.25.52-1.84a5.86,5.86,0,0,0,.22-1.33v-1.18a3.72,3.72,0,0,1,.44-1.91,13.63,13.63,0,0,1,1-1.48,1.64,1.64,0,0,0-.07-.52,1.53,1.53,0,0,1-.07-.51,8.32,8.32,0,0,1,.88-3.91,11.66,11.66,0,0,0,1.18-3.76v-.44a2.32,2.32,0,0,1,.89-2,2.33,2.33,0,0,0,.88-2v-.45a9.36,9.36,0,0,1,.44-2.94l.89-2.66a6,6,0,0,0,1.1-2.95,11.74,11.74,0,0,1,1-3.39,5,5,0,0,0,.59-2.21v-.44c.2-.49.39-.94.59-1.33s.39-.83.59-1.33a2.07,2.07,0,0,0,1-.59,10.8,10.8,0,0,0,.81-.88"/><path class="cls-2" d="M681.89,261.67a6.75,6.75,0,0,0-1.25-3.32,6.23,6.23,0,0,0-2.73-2.58,7.33,7.33,0,0,1-1.47.15h-5.61c-1.08,0-2.13,0-3.17.07a8.77,8.77,0,0,0-2.72.52,14.52,14.52,0,0,1-1.48-.07,14.48,14.48,0,0,0-1.47-.08,16,16,0,0,0-1.62.08,14.8,14.8,0,0,1-1.48.07l-.15.15a18.53,18.53,0,0,0-2.5-.45,26.33,26.33,0,0,0-2.66-.14,16.2,16.2,0,0,0-3.09.29,13.53,13.53,0,0,1-2.66.3,3.75,3.75,0,0,1-2.73-1.33,3.92,3.92,0,0,1-1.25-2.65,7.43,7.43,0,0,1,.15-1.48,8.15,8.15,0,0,0,.15-1.47,2.9,2.9,0,0,0-.37-1.4,2.35,2.35,0,0,1-.37-1,1.92,1.92,0,0,1,.44-1.26,2.28,2.28,0,0,0,.44-1.54,1.64,1.64,0,0,0-.07-.52,1.64,1.64,0,0,1-.07-.52,2,2,0,0,1,1.1-1.84,8.23,8.23,0,0,1,2.58-1,16.31,16.31,0,0,1,3.1-.29h2.8a6.83,6.83,0,0,1,2.95.51,5.84,5.84,0,0,0,2.65.52,6.62,6.62,0,0,0,2-.3,7,7,0,0,1,2-.29,23.74,23.74,0,0,1,3.62.29,23.36,23.36,0,0,0,3.76.3,4.32,4.32,0,0,0,1.4-.22,4.32,4.32,0,0,1,1.4-.22,1,1,0,0,1,.44.07,1,1,0,0,0,.44.07,2.5,2.5,0,0,1,1.63-.66,1.67,1.67,0,0,0,1.47-1c.79-.29,1.25-1.15,1.4-2.58a36.26,36.26,0,0,0,.22-3.76v-1.4a7.81,7.81,0,0,0-.14-1.4,11.73,11.73,0,0,0,.14-1.77v-4.35a8.64,8.64,0,0,0-.29-2.29,3.19,3.19,0,0,0,.29-1.62,5.23,5.23,0,0,0-.66-2.43,12.58,12.58,0,0,0-1.4-2.14h-.15c-.2,0-.27-.05-.22-.15s0-.14-.22-.14h-.3c-1.18-.1-2.36-.17-3.54-.22s-2.35-.08-3.53-.08a74.45,74.45,0,0,0-8.11.44,3.64,3.64,0,0,0-1-.14H658.6a29.06,29.06,0,0,0-3,.14,25,25,0,0,1-2.8.15h-1.63a10.57,10.57,0,0,1-1.77-.15h-1.1a6.7,6.7,0,0,1-1.85-.29,3.71,3.71,0,0,1-1.76-1.11,3.47,3.47,0,0,1-.74-2.43,1.64,1.64,0,0,1,.07-.52,1.52,1.52,0,0,0,.08-.51,4.59,4.59,0,0,0-.3-1.33,4,4,0,0,0,.3-1.77c0-.49,0-1-.08-1.55s-.07-1.05-.07-1.54c0-2.07.66-3.44,2-4.13a9,9,0,0,1,4.2-1c.59,0,1.18,0,1.77.08s1.18.07,1.77.07a6.84,6.84,0,0,0,1.62-.15c1.28.1,2.63.25,4.06.45a31.66,31.66,0,0,0,4.2.29,14.46,14.46,0,0,0,3.61-.44,12.9,12.9,0,0,1,3.32-.44c1,0,2,0,3,.14a30.52,30.52,0,0,0,3.1.15,3.09,3.09,0,0,0,2.58-.88,7.74,7.74,0,0,1,1.69-1.63,11.87,11.87,0,0,1-.29-2.06,22.57,22.57,0,0,1,.14-2.43,20.6,20.6,0,0,0,.15-2.44,9.76,9.76,0,0,0-.15-1.62,11.73,11.73,0,0,1-.14-1.77,5.3,5.3,0,0,1,.29-1.84,4.87,4.87,0,0,0,.3-1.7,3,3,0,0,0-.3-1.25,3.35,3.35,0,0,1-.29-1.4,3.48,3.48,0,0,1,.44-1.7,16.35,16.35,0,0,0,.74-1.54,5.09,5.09,0,0,0-3.32-3.32,12.94,12.94,0,0,0-4.35-1c-1,0-1.94,0-2.88.07s-1.89.08-2.87.08H667a4.77,4.77,0,0,1-1.18-.15q-2.51.15-5,.15h-5.16q-3.69,0-7.08-.15t-6.78-.15h-1.48a2.08,2.08,0,0,0-1.18.3,62.19,62.19,0,0,0-7.81-.45c-1,0-2,0-3,.08s-2,.07-3.1.07h-2.21a17.46,17.46,0,0,1-2.21-.15,9.23,9.23,0,0,1-1.18-.07,9.45,9.45,0,0,0-1.18-.07,6.39,6.39,0,0,0-4.2,1.91,5.43,5.43,0,0,0-2.14,4,3.38,3.38,0,0,0,.29,1.4,3.36,3.36,0,0,1,.3,1.4,5.8,5.8,0,0,1-.22,1.4,6.88,6.88,0,0,0-.22,1.84,22,22,0,0,0,.22,3.17q.21,1.54.51,2.88a10.57,10.57,0,0,0-.15,1.77v3.68a10.57,10.57,0,0,0,.15,1.77,3,3,0,0,0-.15,1v1a3.53,3.53,0,0,0,.3,1.77,4.77,4.77,0,0,0-.3,1.47,8.46,8.46,0,0,0,.15,1.55,8.54,8.54,0,0,1,.15,1.55,6.33,6.33,0,0,1-.15,1.4,7.92,7.92,0,0,0-.15,1.7,7,7,0,0,0,.15,1.54,5.83,5.83,0,0,1,.15,1.26,5,5,0,0,1-.22,1.47,5.11,5.11,0,0,0-.22,1.48A2.7,2.7,0,0,0,613,216a2.45,2.45,0,0,1,.22,1,4.5,4.5,0,0,1-.15,1.25,4.63,4.63,0,0,0-.15,1.26,2.08,2.08,0,0,0,.3,1.18,3.07,3.07,0,0,0-.3,1.62,7.33,7.33,0,0,0,.15,1.47,7.51,7.51,0,0,1,.15,1.48,3.52,3.52,0,0,1-.74,2.06c0,1.09-.05,2.14-.14,3.17s-.15,2.09-.15,3.17v1.4a3.74,3.74,0,0,0,.29,1.41v1.18a9,9,0,0,1-.14,1.62V240a2.76,2.76,0,0,0,.14.89,3.2,3.2,0,0,0,.15,1,3.06,3.06,0,0,1-.15.81,4,4,0,0,0-.14,1.11c0,.69,0,1.33.07,1.92s.12,1.23.22,1.91a6.83,6.83,0,0,0-.44,2.36,17.05,17.05,0,0,0,.15,2.29,18.74,18.74,0,0,1,.14,2.28v.89a3.6,3.6,0,0,1,.3,1.62,7.14,7.14,0,0,1-.3,2.14,6.12,6.12,0,0,0-.29,1.84,2.77,2.77,0,0,0,.29,1.48,14.39,14.39,0,0,0-.07,2.58,13.37,13.37,0,0,1-.07,2.43v3.17c0,1.43,0,2.85.07,4.28s.12,2.67.22,3.76.24,1.62.44,1.62h.15a14.91,14.91,0,0,0,1.4,1.25c.44.34.91.71,1.4,1.11a6.84,6.84,0,0,1,1.62-.15,12.54,12.54,0,0,1,3.1.37,12.42,12.42,0,0,0,2.95.37,4.61,4.61,0,0,0,1.4-.22,4.33,4.33,0,0,1,1.4-.23,1.73,1.73,0,0,1,.66.15,2.18,2.18,0,0,0,.82.15.82.82,0,0,0,.29-.07.55.55,0,0,1,.29-.08,5.14,5.14,0,0,0,2.07.44,10.64,10.64,0,0,0,2.8-.36,10.88,10.88,0,0,1,3-.37,8.45,8.45,0,0,1,1.77.14h.44a4.33,4.33,0,0,1,1.4.23,4.66,4.66,0,0,0,1.4.22,1.3,1.3,0,0,0,1.11-.52c.24-.35.76-.52,1.55-.52h1a2.41,2.41,0,0,0,1.33-.29,32.8,32.8,0,0,0,5.31.44c.78,0,1.57,0,2.36-.07s1.57-.08,2.35-.08h1.77a4.52,4.52,0,0,0,1.92-.29,1.19,1.19,0,0,0,.89.29h5.89c1.58,0,3.17.08,4.8.23s3.12.22,4.49.22a4.59,4.59,0,0,0,1.33-.3,7.68,7.68,0,0,0,1.77-.88,6.9,6.9,0,0,0,1.55-1.4,2.85,2.85,0,0,0,.66-1.85,2.5,2.5,0,0,0-.15-1,8.67,8.67,0,0,1,.23-2,10,10,0,0,0,.22-2.14,3.9,3.9,0,0,0-.15-1.1,4,4,0,0,1-.15-1.11,9.43,9.43,0,0,1,.15-1.7,9.16,9.16,0,0,0,.15-1.69,4,4,0,0,0-.3-1.48,3.51,3.51,0,0,1-.29-1.32,3.69,3.69,0,0,1,.37-1.55A3.83,3.83,0,0,0,681.89,261.67Z"/><rect class="cls-2" x="364.88" y="216.41" width="19.98" height="19.98" transform="translate(-50.29 331.38) rotate(-45)"/><rect class="cls-2" x="190.21" y="216.41" width="19.98" height="19.98" transform="translate(-101.45 207.87) rotate(-45)"/><rect class="cls-2" x="565.88" y="216.41" width="19.98" height="19.98" transform="translate(8.58 473.51) rotate(-45)"/><g id="letter_border"><rect class="cls-3" x="33.91" y="136.12" width="696" height="187" rx="9"/></g><g id="letters_white"><path class="cls-2" d="M158.13,237.78v-.44a1.2,1.2,0,0,0-.59-1.18A1.2,1.2,0,0,1,157,235a.29.29,0,0,1,.08-.22.34.34,0,0,0,.07-.22,6.62,6.62,0,0,0-1.4-4.35c-.94-1.13-1.89-2.29-2.88-3.47q-.58-2.35-4-4.72a62.31,62.31,0,0,0-6.49-4,7.31,7.31,0,0,0-4.49-1.84,20.78,20.78,0,0,1-5.53-1.25,12.13,12.13,0,0,1-2.36-.45,6.68,6.68,0,0,1-2.66-1.17,4.55,4.55,0,0,0-2.5-.82,8.67,8.67,0,0,1-2.66-.51,30.18,30.18,0,0,1-3.24-1.4c-1.08-.54-2.12-1.11-3.1-1.7a8.73,8.73,0,0,1-2.36-2,3.81,3.81,0,0,1-.88-2.43,7.87,7.87,0,0,1,.07-1.11,7.58,7.58,0,0,0,.08-1.1v-.89a2.3,2.3,0,0,1,.29-1.47,1,1,0,0,1-.29-.74c0-.3.39-.66,1.18-1.11s1.74-.9,2.87-1.4a25.52,25.52,0,0,1,3.61-1.25,13.47,13.47,0,0,1,3.39-.52,4.65,4.65,0,0,1,3.18.89,3.62,3.62,0,0,0,2.58.88,9.8,9.8,0,0,1,3.83.81,9.92,9.92,0,0,1,3.1,2,.68.68,0,0,1,.73.52.69.69,0,0,0,.74.52,2.69,2.69,0,0,0,2,1.62,12.28,12.28,0,0,0,2.58.29c1,0,2-.68,3.17-2.06a12.1,12.1,0,0,0,2.29-4,4.92,4.92,0,0,1,1.32-3.39,7,7,0,0,0,1.63-4,8,8,0,0,1,1-2.35,8.17,8.17,0,0,0,1-2.51.76.76,0,0,0,.15-.81.76.76,0,0,1,.15-.81,15.76,15.76,0,0,0-2.07-3.17,9.11,9.11,0,0,0-2.95-2.29,3.16,3.16,0,0,0-1.55-1.25c-.64-.25-1.3-.47-2-.67s-1.35-.39-2-.59a4,4,0,0,1-1.69-1,12.64,12.64,0,0,1-1.85-.44c-.64-.2-1.25-.39-1.84-.59a7.67,7.67,0,0,1-1.1-.29c-.65-.2-1.43-.4-2.36-.59s-1.92-.37-2.95-.52a19.36,19.36,0,0,0-2.73-.22,7.78,7.78,0,0,0-1.11.07,6.65,6.65,0,0,1-1,.08,5.45,5.45,0,0,1-2.06-.37,5.26,5.26,0,0,0-2.06-.37h-1.77a11.4,11.4,0,0,0-3.69.51,10.1,10.1,0,0,1-3.39.52,4.52,4.52,0,0,1-.74-.07,4.58,4.58,0,0,0-.74-.08,10.09,10.09,0,0,0-3.24.67c-1.28.44-2.36.86-3.24,1.25a4.32,4.32,0,0,1-1.7.81c-.64.15-1.28.32-1.92.52s-1.25.42-1.84.66a2.57,2.57,0,0,0-1.33,1.25c-.59.3-1.15.57-1.69.81s-1.11.52-1.7.82a13.33,13.33,0,0,1-1,1.4,14.91,14.91,0,0,1-1.25,1.4,5.23,5.23,0,0,0-2.51,2.43A9,9,0,0,1,87.94,186,20.42,20.42,0,0,1,86.32,189a12.39,12.39,0,0,0-1.47,3.25,6.47,6.47,0,0,0-.59,1.55c-.3.93-.59,2-.89,3.17s-.56,2.33-.81,3.46a12.79,12.79,0,0,0-.37,2.44c0,.39,0,.59.15.59,0,.39,0,.78-.07,1.18a9.2,9.2,0,0,0-.08,1.17,13.62,13.62,0,0,0,.59,4,11.79,11.79,0,0,1,.59,3.39,6.25,6.25,0,0,1-.07,1,5.24,5.24,0,0,0-.08.88,5.05,5.05,0,0,0,.59,2.22,2.91,2.91,0,0,0,1.33,1.47,6.21,6.21,0,0,0,1.77,3.91c1,.93,2,1.89,3,2.87,0,.2.24.52.74,1a19.94,19.94,0,0,0,1.77,1.4,16.94,16.94,0,0,0,2.14,1.33c.73.39,1.35.69,1.84.89q3.09,1.9,6.71,3.68a29.55,29.55,0,0,0,7.44,2.51,5.35,5.35,0,0,1,1.55.66,5.51,5.51,0,0,0,2.58.67,6.15,6.15,0,0,1,3,1,5.21,5.21,0,0,0,3,.88h.3c1.57,1,3.14,1.94,4.71,2.88a7.17,7.17,0,0,1,3.25,4.2,3.85,3.85,0,0,1,.22,1.7,1.38,1.38,0,0,0,.66,1.4v.14a1,1,0,0,0,.08.45.62.62,0,0,1,.07.29.57.57,0,0,1-.15.44v.45a2.35,2.35,0,0,1-.73,1.84,10.9,10.9,0,0,0-1.33,1.4,3.76,3.76,0,0,1-1.62,3.32,21.89,21.89,0,0,1-3.25,1.84,6,6,0,0,0-1.47-.15,10.57,10.57,0,0,0-3.1.45,11.38,11.38,0,0,1-3.24.44,2,2,0,0,0-1.26-.74c-.54-.1-1.1-.17-1.69-.22s-1.16-.12-1.7-.22a2.56,2.56,0,0,1-1.4-.74,6.49,6.49,0,0,1-2.8-1.55,10.46,10.46,0,0,0-2.8-1.84c-.59-.49-1.25-1.06-2-1.7A19,19,0,0,0,99,251.94a1.85,1.85,0,0,1-1.47-1.33,1.83,1.83,0,0,0-1.33-1.33,12.54,12.54,0,0,0-1.4-1.18,3.33,3.33,0,0,0-2-.59,5.94,5.94,0,0,0-1.92.3,3.35,3.35,0,0,1-1.1,1.33c-.45.29-.91.61-1.4,1A10.3,10.3,0,0,0,87,251.27a3,3,0,0,0-.81,1.7,5,5,0,0,1-1,1.84l-1.41,1.7a9.58,9.58,0,0,0-1.91,2.8,9.47,9.47,0,0,1-1.92,2.8.79.79,0,0,1-.52.81.81.81,0,0,0-.51.81c-.2.69-.42,1.43-.67,2.22a6.64,6.64,0,0,0-.36,1.77,5.74,5.74,0,0,0,1.32,4,10,10,0,0,0,3.25,2.36c0-.1.12-.05.37.14l.88.74q.51.45,1,.81c.29.25.49.42.59.52a3.68,3.68,0,0,0,2.43,1.33,2.65,2.65,0,0,1,2.14,1.47c.69.39,1.33.79,1.92,1.18a6.41,6.41,0,0,0,2.06.88,6.47,6.47,0,0,0,1.55.59l3,1,3,1c.89.3,1.43.49,1.62.59h.3a.36.36,0,0,1,.37.22.67.67,0,0,0,.37.37,21.82,21.82,0,0,1,3.09.22,19.53,19.53,0,0,0,3,.22,9.14,9.14,0,0,0,3-.44c2.56-.2,5.14-.29,7.74-.29a34.39,34.39,0,0,0,7.3-.74,17.11,17.11,0,0,0,5.75-1.25,26.8,26.8,0,0,1,4.72-1.55,9.49,9.49,0,0,1,4-2.8,8.22,8.22,0,0,0,3.84-2.95,3.4,3.4,0,0,0,.88-1,2,2,0,0,1,1-.81,3.61,3.61,0,0,1,1.85-1.4,2.07,2.07,0,0,0,1.4-1.55c.68-1.08,1.32-2.19,1.91-3.32s1.18-2.29,1.77-3.47a3.15,3.15,0,0,0,1-1.4,9.75,9.75,0,0,0,.44-1.77,10.28,10.28,0,0,1,.44-1.84,4.17,4.17,0,0,1,1-1.62c0-.59,0-1.33.08-2.21s.09-1.79.14-2.73a15.48,15.48,0,0,1,.3-2.43c.15-.69.32-1.08.51-1.18a51.89,51.89,0,0,1-.29-5.53A17.6,17.6,0,0,0,158.13,237.78Z"/><path class="cls-2" d="M342.45,274.65a4.16,4.16,0,0,0-.74-2.51,6.55,6.55,0,0,1-1-2.21c-.1-.69-.2-1.35-.29-2a4.76,4.76,0,0,0-.59-1.7,5.43,5.43,0,0,1-1.62-3.09c-.3-1.38-.55-2.56-.74-3.54A7.58,7.58,0,0,1,336,257c-.35-1-.67-2.09-1-3.17s-.62-2.12-1-3.1a7.72,7.72,0,0,0-1.4-2.51,1.57,1.57,0,0,1,.07-.51,1.62,1.62,0,0,0,.08-.52,3.82,3.82,0,0,0-1-2.8,4.82,4.82,0,0,1-1.33-2.66v-.44a2.92,2.92,0,0,0-.67-2.14,3.74,3.74,0,0,1-.95-1.69,4.18,4.18,0,0,0,.14-1.18,3.13,3.13,0,0,0-.88-2.43,3.16,3.16,0,0,1-.89-2.44c0,.2-.1-.05-.29-.73a2,2,0,0,0-.89-1.33v-.59a5.08,5.08,0,0,0-.88-3,3.92,3.92,0,0,1-.89-2,2.46,2.46,0,0,1,.08-.59,2.32,2.32,0,0,0,.07-.59V222a14.15,14.15,0,0,1-2.21-6.19,3.78,3.78,0,0,1-1.4-3,7.18,7.18,0,0,0-1-3.47,3,3,0,0,0-1-1.91,2.65,2.65,0,0,1-.81-2.07,2,2,0,0,1,.15-.88q-.58,0-.81-.81a15.09,15.09,0,0,1-.37-1.85c-.1-.68-.22-1.37-.37-2.06a1.69,1.69,0,0,0-1-1.33,1,1,0,0,1,.08-.44,1.18,1.18,0,0,0,.07-.44A3,3,0,0,0,314.8,195a2.84,2.84,0,0,1-1.1-2.44,3.81,3.81,0,0,1,.15-1.18,2,2,0,0,1-1-1.32c-.15-.59-.28-1.18-.37-1.77a17,17,0,0,0-.37-1.7,3.19,3.19,0,0,0-.81-1.4,10,10,0,0,0-1.25-4.42,11.44,11.44,0,0,1-1.41-4.43c-.68-.68-1.32-1.27-1.91-1.77a13,13,0,0,0-1.92-1.32,4.18,4.18,0,0,0-2.06-.59,14.13,14.13,0,0,0-2,.14c-.64.1-1.21.2-1.7.3a7.7,7.7,0,0,0-1.77-.15A10.56,10.56,0,0,0,296,173a8.09,8.09,0,0,1-1,.07,13.85,13.85,0,0,1-2,.15h-1.84a70.58,70.58,0,0,1-7.3-.37,68,68,0,0,0-7.3-.37c-1.08,0-2.14,0-3.17.15a8.29,8.29,0,0,0-3.17,1,4.38,4.38,0,0,1-1.7,1.84,3.61,3.61,0,0,0-1.55,1.85v1a5,5,0,0,1-1.47,3.68,2.93,2.93,0,0,0-.74,2.14,4.87,4.87,0,0,1-.59,2.44,3.15,3.15,0,0,1-.81,2.21,4.64,4.64,0,0,0-1.1,2.06,2.53,2.53,0,0,0-.23,1.4,2.52,2.52,0,0,1-.22,1.4,4.68,4.68,0,0,0-1.25,3.25,5.87,5.87,0,0,1-1.25,3.54,3.06,3.06,0,0,0-1,2.43,4,4,0,0,1-.59,2.28,3.48,3.48,0,0,0-.73,1.63c-.1.59-.2,1.2-.3,1.84a11,11,0,0,1-.44,1.84,3.77,3.77,0,0,1-.88,1.48,5.26,5.26,0,0,1-1.11,3,4.74,4.74,0,0,0-1,3.09v.45a5.42,5.42,0,0,0-1.4,2.87,8.44,8.44,0,0,1-1,2.88l-.59,1.47c-.2.49-.39,1-.59,1.62a2.73,2.73,0,0,0-.88,2.22,3.56,3.56,0,0,1-.74,2.35,38.91,38.91,0,0,1-1.4,4.06,39.56,39.56,0,0,0-1.4,4.05,18.37,18.37,0,0,0-.52,1.92,12,12,0,0,1-.51,1.77c0-.19-.1-.07-.3.37s-.44,1-.74,1.62l-.81,1.77c-.24.54-.42.81-.51.81a2.17,2.17,0,0,1,.29,1.18,2.24,2.24,0,0,1-.81,1.84,2.27,2.27,0,0,0-.81,1.85v.74a3.53,3.53,0,0,1-.3,1.69c-.19.35-.46.81-.81,1.4s-.78,1.43-1.32,2.51a34.58,34.58,0,0,0-1.85,5v.74a2.42,2.42,0,0,1-.81,2,3.26,3.26,0,0,0-1.1,1.7v.59a2.72,2.72,0,0,1-.67,1.91,2.78,2.78,0,0,0-.66,1.92,5.26,5.26,0,0,1-.66,2.73,6.47,6.47,0,0,0-.67,3.32,3.49,3.49,0,0,0,1.92,3.17,8.47,8.47,0,0,0,4.28,1.1c.68,0,1.35,0,2-.07s1.25-.08,1.84-.08a22,22,0,0,1,3.17.23,23.54,23.54,0,0,0,3.17.22,4.6,4.6,0,0,0,2.43-.59,4.52,4.52,0,0,1,2.44-.59,20.38,20.38,0,0,1,2.5.29,25.79,25.79,0,0,0,4,.3,4.14,4.14,0,0,0,2.22-1c.88-.64,1.71-1.3,2.5-2a4.86,4.86,0,0,0,.74-2.14,19,19,0,0,1,.44-2.43,3.58,3.58,0,0,0,1.18-2.81,11.93,11.93,0,0,1,.74-3.53,25.55,25.55,0,0,1,.59-2.95,5.77,5.77,0,0,1,1-1.92,2.16,2.16,0,0,1,1.84-.89c.79,0,1.6,0,2.43-.07s1.7-.07,2.58-.07c1.09,0,2.17.05,3.25.14s2.16.15,3.24.15a5.83,5.83,0,0,0,2.14-.37l1.7-.66a50,50,0,0,1,5.6.3,57,57,0,0,0,6.05.29h2.13a7.43,7.43,0,0,0,2-.29H304a8.51,8.51,0,0,1,2.58.44c.93.29,1.4,1.13,1.4,2.5v1a1.8,1.8,0,0,0,.88,1.69,1.82,1.82,0,0,1,.89,1.7,8.09,8.09,0,0,0-.3,1.62,4,4,0,0,0,1,2.73,4,4,0,0,1,1,2.73,8.09,8.09,0,0,1-.3,1.62,6.09,6.09,0,0,0,4.06,3.32,22.85,22.85,0,0,0,6.12.81,20.31,20.31,0,0,0,3-.22,19,19,0,0,1,3-.23q2.07,0,4.35.15t4.35.15h1.48l.15-.15a4.61,4.61,0,0,0,1.32.3,2.71,2.71,0,0,0,1.7-.52,4.54,4.54,0,0,0,1.1-1.25c.3-.49.62-1,1-1.48a4.16,4.16,0,0,1,1.26-1.18,3,3,0,0,0-.74-2.21A2.79,2.79,0,0,1,342.45,274.65Zm-48.73-33.92h-1.55a25.59,25.59,0,0,1-5.24-.51,24.73,24.73,0,0,0-5.23-.52h-1.4a7,7,0,0,0-1.4.15,5.11,5.11,0,0,0-1.33-1.4,1.92,1.92,0,0,1-.88-1.55c.19-.79.39-1.57.59-2.36s.37-1.35.51-2a11.85,11.85,0,0,1,.52-1.7,12.23,12.23,0,0,1,1.1-2.43,5.16,5.16,0,0,0,.67-2.73V225a11.68,11.68,0,0,1,1.1-2.21,4.74,4.74,0,0,0,.67-2.65v-.74a8.3,8.3,0,0,1,.66-1.55c.25-.44.52-.91.81-1.4a6.25,6.25,0,0,0-.07-1,6.25,6.25,0,0,1-.08-1,3.49,3.49,0,0,1,1-2.58,3.91,3.91,0,0,0,1-2.88,6.25,6.25,0,0,1,.3-.74,1.73,1.73,0,0,0,.14-.73V207a12.92,12.92,0,0,1,.81-2.06c.35-.69,1.16-1,2.44-1a1.47,1.47,0,0,1,1,.29,9.75,9.75,0,0,1,.37,1.88c.13,1,.24.65.38,1.45a5.12,5.12,0,0,1,.51,1.72c.16.8.51.75.51,1.44a6.76,6.76,0,0,0,.29,2.07,3,3,0,0,1,1.26,2.8,4.77,4.77,0,0,0,1,3.24,6.76,6.76,0,0,0,.88,2.88,5.85,5.85,0,0,1,.74,3,22.06,22.06,0,0,1,1.18,2.58c.49,1.23,1,2.56,1.4,4s.83,2.78,1.18,4.06a12.36,12.36,0,0,1,.51,2.65,1.25,1.25,0,0,1-.51,1.18,3.91,3.91,0,0,1-1.25.44l-1.55.3a2.32,2.32,0,0,0-1.26.59A5.22,5.22,0,0,1,293.72,240.73Z"/><path class="cls-2" d="M507.41,230.62c.2.3,0,1.22,0,2v2c.59.5-.18,1-.32,2.13a3.56,3.56,0,0,0,.51,2.65,3.07,3.07,0,0,0,.15,1.11,2.61,2.61,0,0,1,.15,1v.59a2.88,2.88,0,0,1,.59,2.06,12.29,12.29,0,0,1-.08,1.4,11.39,11.39,0,0,0-.07,1.26,6.62,6.62,0,0,0,.59,2.95,6.22,6.22,0,0,1,.59,2.8,11.89,11.89,0,0,1-.15,1.84,12,12,0,0,0-.15,1.84,5.36,5.36,0,0,0,.67,2.66,4.8,4.8,0,0,1,.66,2.36,2.18,2.18,0,0,1-.44,1.1,2.15,2.15,0,0,0-.44,1.11,2.24,2.24,0,0,0,.73,1.62,2.45,2.45,0,0,1,.74,1.77,2.55,2.55,0,0,1-.59,1.62,10.62,10.62,0,0,0,1,4.57,11.73,11.73,0,0,1,1,5,1.29,1.29,0,0,1-.15.59,1.29,1.29,0,0,0-.15.59.93.93,0,0,0,.74,1,4,4,0,0,1,1.33.66A1.87,1.87,0,0,0,516.3,282a9.58,9.58,0,0,1,2.66.22v.14l2.43.3a22.92,22.92,0,0,0,2.73.15h2.58a3.78,3.78,0,0,1,1.1.14H529c1.08,0,2.22.05,3.39.15s2.36.15,3.54.15a9.69,9.69,0,0,0,5.75-1.48q2.07-1.47,2.36-5.3a5,5,0,0,1-.95-2.88c-.06-1.13-.13-2.23-.23-3.32a7.19,7.19,0,0,1-.44-1.1A6.37,6.37,0,0,0,542,268a4.55,4.55,0,0,0,.29-1.18,4.32,4.32,0,0,0-.22-1.4c-.14-.44-.32-.91-.51-1.4a23.43,23.43,0,0,0-.52-5.09,23.36,23.36,0,0,1-.51-5.08,8.41,8.41,0,0,1-1-3.84,41.36,41.36,0,0,0-.37-4.27,1.72,1.72,0,0,1-.59-1.48v-2.21a8.51,8.51,0,0,1-.74-3.61,14,14,0,0,0-.44-3.62,5.25,5.25,0,0,0-.67-2.65,4.56,4.56,0,0,1-.66-2.21,5.83,5.83,0,0,1,.15-1.26,5.6,5.6,0,0,0,.15-1.25,1.81,1.81,0,0,0-.74-1.47c0-.79,0-1.55-.07-2.29a8.5,8.5,0,0,0-.52-2.28,1.05,1.05,0,0,1-.74-1,2.61,2.61,0,0,1,.3-1.18,3,3,0,0,0,.29-1.32,2,2,0,0,0-.15-.89v-.15c0-.39-.17-.59-.51-.59s-.52-.29-.52-.88a2,2,0,0,1,.22-1,2.13,2.13,0,0,0,.22-1.1V213a10,10,0,0,1-1.1-2.36,9.27,9.27,0,0,1-.37-2.8,3.23,3.23,0,0,1,.07-.66,3.47,3.47,0,0,0,.08-.67,4,4,0,0,1-.89-2.21,23.54,23.54,0,0,1-.15-2.65,23.91,23.91,0,0,0-.14-2.58,4,4,0,0,0-.89-2.14,6.89,6.89,0,0,0,.15-1.62,9.35,9.35,0,0,0-.15-1.7c-.1-.54-.2-1.11-.29-1.7a2.71,2.71,0,0,1-.74-2.21v-1.77a1.2,1.2,0,0,0-.29-1,.93.93,0,0,1-.3-.81l.15-.29a2.34,2.34,0,0,1-.3-1,4,4,0,0,1,.15-1.11,3.92,3.92,0,0,0,.15-1.11q0,.3-.3-1.47a6.62,6.62,0,0,0-1-2.8,2,2,0,0,0,.15-.89,3.42,3.42,0,0,0-.81-2.28q-.81-1-.81-.81v-.3a1.64,1.64,0,0,0-.89-.81,2.94,2.94,0,0,1-1-.66c-1.08.1-2.16.17-3.24.22s-2.17.07-3.25.07q-3.39,0-6.71-.15t-6.71-.14a50.76,50.76,0,0,0-6.26.37,5.22,5.22,0,0,0-4.35,3.46c-.5.1-.74.49-.74,1.18v.89a3.76,3.76,0,0,1-.74,2.21,3.74,3.74,0,0,0-.74,2.21,16.88,16.88,0,0,0-.81,4.87,6.4,6.4,0,0,1-1.54,4.27,12.55,12.55,0,0,1-.67,1.84,11.15,11.15,0,0,0-.66,2,4.44,4.44,0,0,1-.81,3.9,5.66,5.66,0,0,0-1.26,2.73,3.3,3.3,0,0,0,.08.52,3.23,3.23,0,0,1,.07.66,8.67,8.67,0,0,1-.29,1.92,3.68,3.68,0,0,1-.59,1.47,5.1,5.1,0,0,0-1,2.21c-.19.89-.39,1.8-.59,2.73s-.41,1.82-.66,2.66a6,6,0,0,1-1.1,2.13,6,6,0,0,1,.14,1.33,4.43,4.43,0,0,1-1,3,4.47,4.47,0,0,0-.95,3,13.07,13.07,0,0,1-1,3.31c-.54,1.33-1.21,2-2,2q-.3,0-.3-.15a5.5,5.5,0,0,1-2.65-3.17,31.81,31.81,0,0,1-1.18-4.35,3.44,3.44,0,0,1-1-3,4.63,4.63,0,0,0-.74-3.17,4.89,4.89,0,0,1-.44-1.25,7.08,7.08,0,0,1-.15-1.55v-.59a5,5,0,0,1-1.18-3,6.55,6.55,0,0,0-1-3.17,4.7,4.7,0,0,0-.59-2.36,5.23,5.23,0,0,1-.59-2.65,6,6,0,0,1,.14-1.33l-.81-1.11c-.24-.34-.51-.71-.81-1.1a8.76,8.76,0,0,0,.3-1.48,3.3,3.3,0,0,0-.67-2.06,5.75,5.75,0,0,1-.95-1.92c-.1-1-.2-1.86-.3-2.65a10.2,10.2,0,0,0-.59-2.36,20.38,20.38,0,0,1-1.4-4.35,39.85,39.85,0,0,0-1.25-4.57,11.23,11.23,0,0,0-2.07-3.69,5.38,5.38,0,0,0-4-1.7h-1.62c-1.48,0-2.95,0-4.43.08s-2.94.07-4.42.07-3.1-.05-4.57-.15-3.05-.14-4.72-.14a14.55,14.55,0,0,0-4.27.44,5,5,0,0,0-2,1.11,5.08,5.08,0,0,0-1,1.47,5.88,5.88,0,0,1-1.25,1.7,5.22,5.22,0,0,0,.07.88,4.69,4.69,0,0,1,.08.74,15.3,15.3,0,0,1-.67,4.64,15.74,15.74,0,0,0-.66,4.65c0,.1,0,.14.15.14l.14.15a3,3,0,0,1-.59,1.85,3.06,3.06,0,0,0-.59,1.84,3.52,3.52,0,0,0,.15,1,3.41,3.41,0,0,1,.15,1,6.33,6.33,0,0,1-.59,2.72,6.77,6.77,0,0,0-.59,2.88,2.41,2.41,0,0,0,.15.74,2.63,2.63,0,0,1,.14.73,1.43,1.43,0,0,1-.51,1,1.56,1.56,0,0,0-.52,1.11,3.52,3.52,0,0,0,.15,1,3.9,3.9,0,0,1,.15,1.1,1.62,1.62,0,0,1-.15.74,6.44,6.44,0,0,0-.88,3.39,19.47,19.47,0,0,1-.3,3.54,3.14,3.14,0,0,0-.74,2.06,3.41,3.41,0,0,0,.15,1,3.52,3.52,0,0,1,.15,1,.29.29,0,0,1-.08.22.6.6,0,0,0-.07.37,3,3,0,0,0-.74,2.21v1.77a5.35,5.35,0,0,1-.73,3.1,3.9,3.9,0,0,0-.74,2.36,2.94,2.94,0,0,0,.22,1,3.28,3.28,0,0,1,.22,1.18,3.71,3.71,0,0,1-.22,1.33,8.33,8.33,0,0,0-.37,1.32,4.12,4.12,0,0,0-.22,1.26c-.05.64-.12,1.3-.22,2a14.91,14.91,0,0,1-.37,1.84q-.23.81-.66.81v.3a1.15,1.15,0,0,0,.22.73,1.2,1.2,0,0,1,.22.74v.15a.6.6,0,0,1,.15.44,1,1,0,0,1-.59,1c-.4.2-.59.69-.59,1.48a4.11,4.11,0,0,0,.22,1.55,2.14,2.14,0,0,1,.22.81,1.35,1.35,0,0,1-.44,1.1,1.82,1.82,0,0,0-.59,1.11c0,1.08-.05,2.19-.15,3.32a19.57,19.57,0,0,1-.59,3.32,3.2,3.2,0,0,1,.15,1,3.54,3.54,0,0,1-.67,2.21,3.6,3.6,0,0,0-.66,2.21v.44a3.66,3.66,0,0,0-.37,1.18,10.8,10.8,0,0,0-.07,1.33V264a14.86,14.86,0,0,1-.74,3.69,47.78,47.78,0,0,0-1.18,5v.88a9.71,9.71,0,0,1-.22,2.07,9.05,9.05,0,0,0-.22,1.92,5,5,0,0,0,1.25,2.94c.84,1.09,2.24,1.63,4.2,1.63a13.73,13.73,0,0,0,2.88-.3,14.35,14.35,0,0,1,2.88-.29,6.63,6.63,0,0,1,3.24.73,7.87,7.87,0,0,0,1.11-.07,7.63,7.63,0,0,1,1.1-.07c1,0,2,.05,3,.14a29.14,29.14,0,0,0,2.95.15h1.47a4.1,4.1,0,0,0,1.48-.29,2.74,2.74,0,0,0,1.25-.52,11.53,11.53,0,0,0,1.55-1.18,14.69,14.69,0,0,0,1.25-1.25,1.65,1.65,0,0,0,.52-.89,2.26,2.26,0,0,0-.22-1,2.23,2.23,0,0,1-.22-1,3.56,3.56,0,0,1,.59-1.62,4.72,4.72,0,0,0,.59-2.36,4.77,4.77,0,0,0-.15-1.18,4.26,4.26,0,0,1-.15-1,1.91,1.91,0,0,1,.3-1,2.58,2.58,0,0,0,.29-1.26,2.23,2.23,0,0,0-.29-1.1,2.47,2.47,0,0,1-.3-1.26,1.91,1.91,0,0,1,.81-1.62,2,2,0,0,0,.81-1.77,2.57,2.57,0,0,0-.29-1.25,2.15,2.15,0,0,1-.3-1.11,4.66,4.66,0,0,1,.45-2,5.07,5.07,0,0,0,.44-2.13,2.55,2.55,0,0,0-.22-1,2.24,2.24,0,0,1-.22-.81c0-.2,0-.3.14-.3s.15-.1.15-.29v-.15a2.64,2.64,0,0,0,.59-1.92,5.22,5.22,0,0,0-.07-.88,5.35,5.35,0,0,1-.08-.89,1.82,1.82,0,0,1,.52-1.55,1.62,1.62,0,0,0,.52-1.4v-.59a6.35,6.35,0,0,0-.08-.81,7.63,7.63,0,0,1-.07-1.1,3.19,3.19,0,0,1,.44-1.63,2.46,2.46,0,0,1-.15-1,3.65,3.65,0,0,1,.67-2.14,4.17,4.17,0,0,0,.66-2.43,1.18,1.18,0,0,0-.07-.44,1,1,0,0,1-.08-.44,2.55,2.55,0,0,0,.45-1.77,6.45,6.45,0,0,0-.3-2.07,6.86,6.86,0,0,1,.66-2.8c.45-1,1.06-1.47,1.85-1.47a1.78,1.78,0,0,1,1.69,1,11.1,11.1,0,0,0,1.11,1.7,2,2,0,0,0-.15.88,4.48,4.48,0,0,0,.67,2.51,11.68,11.68,0,0,1,1.1,2.21,2.21,2.21,0,0,0-.29.89,5.22,5.22,0,0,0,.95,3,6,6,0,0,1,1,3.47V244a4.38,4.38,0,0,0,.59,1.84,3.25,3.25,0,0,1,.44,1.84v.89a16.19,16.19,0,0,1,2.22,9,1.8,1.8,0,0,1,1,1.11,6.79,6.79,0,0,1,.37,1.69c.05.59.12,1.16.22,1.7a3.21,3.21,0,0,0,.59,1.4,13,13,0,0,0,.59,2.95l.88,2.65a5.32,5.32,0,0,0,.89,3.25,5,5,0,0,1,.88,3.09A7.69,7.69,0,0,1,464,277a8.91,8.91,0,0,0,.66,1.4,10.16,10.16,0,0,0,1.33,1.91,10.92,10.92,0,0,0,1.77,1.7,3,3,0,0,0,1.84.74,7.33,7.33,0,0,0,1.47-.15,7.36,7.36,0,0,1,1.48-.15,8.83,8.83,0,0,1,1.32.08,13.21,13.21,0,0,0,1.33.07,31,31,0,0,0,3.76-.22,32.32,32.32,0,0,1,3.91-.22,7.87,7.87,0,0,1,1.11.07,8.9,8.9,0,0,0,1.25.07,10.69,10.69,0,0,0,2.51-1.69c.68-.64,1.42-1.3,2.21-2v-.44a2.22,2.22,0,0,1,.88-1.77,2,2,0,0,1-.15-.89,6.33,6.33,0,0,1,.15-1.4,6.33,6.33,0,0,0,.15-1.4v-.59a4.84,4.84,0,0,0,.88-1.4,15.14,15.14,0,0,0,.74-1.92c.2-.64.37-1.25.52-1.84a5.86,5.86,0,0,0,.22-1.33v-1.18a3.72,3.72,0,0,1,.44-1.91,13.63,13.63,0,0,1,1-1.48,1.64,1.64,0,0,0-.07-.52,1.53,1.53,0,0,1-.07-.51,8.32,8.32,0,0,1,.88-3.91,11.66,11.66,0,0,0,1.18-3.76v-.44a2.32,2.32,0,0,1,.89-2,2.33,2.33,0,0,0,.88-2v-.45a9.36,9.36,0,0,1,.44-2.94l.89-2.66a6,6,0,0,0,1.1-2.95,11.74,11.74,0,0,1,1-3.39,5,5,0,0,0,.59-2.21v-.44c.2-.49.39-.94.59-1.33s.39-.83.59-1.33c.39-.09.5-1.34.79-1.64s2.07-1.16,2,0"/><path class="cls-2" d="M681.89,261.67a6.75,6.75,0,0,0-1.25-3.32,6.23,6.23,0,0,0-2.73-2.58,7.33,7.33,0,0,1-1.47.15h-5.61c-1.08,0-2.13,0-3.17.07a8.77,8.77,0,0,0-2.72.52,14.52,14.52,0,0,1-1.48-.07,14.48,14.48,0,0,0-1.47-.08,16,16,0,0,0-1.62.08,14.8,14.8,0,0,1-1.48.07l-.15.15a18.53,18.53,0,0,0-2.5-.45,26.33,26.33,0,0,0-2.66-.14,16.2,16.2,0,0,0-3.09.29,13.53,13.53,0,0,1-2.66.3,3.75,3.75,0,0,1-2.73-1.33,3.92,3.92,0,0,1-1.25-2.65,7.43,7.43,0,0,1,.15-1.48,8.15,8.15,0,0,0,.15-1.47,2.9,2.9,0,0,0-.37-1.4,2.35,2.35,0,0,1-.37-1,1.92,1.92,0,0,1,.44-1.26,2.28,2.28,0,0,0,.44-1.54,1.64,1.64,0,0,0-.07-.52,1.64,1.64,0,0,1-.07-.52,2,2,0,0,1,1.1-1.84,8.23,8.23,0,0,1,2.58-1,16.31,16.31,0,0,1,3.1-.29h2.8a6.83,6.83,0,0,1,2.95.51,5.84,5.84,0,0,0,2.65.52,6.62,6.62,0,0,0,2-.3,7,7,0,0,1,2-.29,23.74,23.74,0,0,1,3.62.29,23.36,23.36,0,0,0,3.76.3,4.32,4.32,0,0,0,1.4-.22,4.32,4.32,0,0,1,1.4-.22,1,1,0,0,1,.44.07,1,1,0,0,0,.44.07,2.5,2.5,0,0,1,1.63-.66,1.67,1.67,0,0,0,1.47-1c.79-.29,1.25-1.15,1.4-2.58a36.26,36.26,0,0,0,.22-3.76v-1.4a7.81,7.81,0,0,0-.14-1.4,11.73,11.73,0,0,0,.14-1.77v-4.35a8.64,8.64,0,0,0-.29-2.29,3.19,3.19,0,0,0,.29-1.62,5.23,5.23,0,0,0-.66-2.43,12.58,12.58,0,0,0-1.4-2.14h-.15c-.2,0-.27-.05-.22-.15s0-.14-.22-.14h-.3c-1.18-.1-2.36-.17-3.54-.22s-2.35-.08-3.53-.08a74.45,74.45,0,0,0-8.11.44,3.64,3.64,0,0,0-1-.14H658.6a29.06,29.06,0,0,0-3,.14,25,25,0,0,1-2.8.15h-1.63a10.57,10.57,0,0,1-1.77-.15h-1.1a6.7,6.7,0,0,1-1.85-.29,3.71,3.71,0,0,1-1.76-1.11,3.47,3.47,0,0,1-.74-2.43,1.64,1.64,0,0,1,.07-.52,1.52,1.52,0,0,0,.08-.51,4.59,4.59,0,0,0-.3-1.33,4,4,0,0,0,.3-1.77c0-.49,0-1-.08-1.55s-.07-1.05-.07-1.54c0-2.07.66-3.44,2-4.13a9,9,0,0,1,4.2-1c.59,0,1.18,0,1.77.08s1.18.07,1.77.07a6.84,6.84,0,0,0,1.62-.15c1.28.1,2.63.25,4.06.45a31.66,31.66,0,0,0,4.2.29,14.46,14.46,0,0,0,3.61-.44,12.9,12.9,0,0,1,3.32-.44c1,0,2,0,3,.14a30.52,30.52,0,0,0,3.1.15,3.09,3.09,0,0,0,2.58-.88,7.74,7.74,0,0,1,1.69-1.63,11.87,11.87,0,0,1-.29-2.06,22.57,22.57,0,0,1,.14-2.43,20.6,20.6,0,0,0,.15-2.44,9.76,9.76,0,0,0-.15-1.62,11.73,11.73,0,0,1-.14-1.77,5.3,5.3,0,0,1,.29-1.84,4.87,4.87,0,0,0,.3-1.7,3,3,0,0,0-.3-1.25,3.35,3.35,0,0,1-.29-1.4,3.48,3.48,0,0,1,.44-1.7,16.35,16.35,0,0,0,.74-1.54,5.09,5.09,0,0,0-3.32-3.32,12.94,12.94,0,0,0-4.35-1c-1,0-1.94,0-2.88.07s-1.89.08-2.87.08H667a4.77,4.77,0,0,1-1.18-.15q-2.51.15-5,.15h-5.16q-3.69,0-7.08-.15t-6.78-.15h-1.48a2.08,2.08,0,0,0-1.18.3,62.19,62.19,0,0,0-7.81-.45c-1,0-2,0-3,.08s-2,.07-3.1.07h-2.21a17.46,17.46,0,0,1-2.21-.15,9.23,9.23,0,0,1-1.18-.07,9.45,9.45,0,0,0-1.18-.07,6.39,6.39,0,0,0-4.2,1.91,5.43,5.43,0,0,0-2.14,4,3.38,3.38,0,0,0,.29,1.4,3.36,3.36,0,0,1,.3,1.4,5.8,5.8,0,0,1-.22,1.4,6.88,6.88,0,0,0-.22,1.84,22,22,0,0,0,.22,3.17q.21,1.54.51,2.88a10.57,10.57,0,0,0-.15,1.77v3.68a10.57,10.57,0,0,0,.15,1.77,3,3,0,0,0-.15,1v1a3.53,3.53,0,0,0,.3,1.77,4.77,4.77,0,0,0-.3,1.47,8.46,8.46,0,0,0,.15,1.55,8.54,8.54,0,0,1,.15,1.55,6.33,6.33,0,0,1-.15,1.4,7.92,7.92,0,0,0-.15,1.7,7,7,0,0,0,.15,1.54,5.83,5.83,0,0,1,.15,1.26,5,5,0,0,1-.22,1.47,5.11,5.11,0,0,0-.22,1.48A2.7,2.7,0,0,0,613,216a2.45,2.45,0,0,1,.22,1,4.5,4.5,0,0,1-.15,1.25,4.63,4.63,0,0,0-.15,1.26,2.08,2.08,0,0,0,.3,1.18,3.07,3.07,0,0,0-.3,1.62,7.33,7.33,0,0,0,.15,1.47,7.51,7.51,0,0,1,.15,1.48,3.52,3.52,0,0,1-.74,2.06c0,1.09-.05,2.14-.14,3.17s-.15,2.09-.15,3.17v1.4a3.74,3.74,0,0,0,.29,1.41v1.18a9,9,0,0,1-.14,1.62V240a2.76,2.76,0,0,0,.14.89,3.2,3.2,0,0,0,.15,1,3.06,3.06,0,0,1-.15.81,4,4,0,0,0-.14,1.11c0,.69,0,1.33.07,1.92s.12,1.23.22,1.91a6.83,6.83,0,0,0-.44,2.36,17.05,17.05,0,0,0,.15,2.29,18.74,18.74,0,0,1,.14,2.28v.89a3.6,3.6,0,0,1,.3,1.62,7.14,7.14,0,0,1-.3,2.14,6.12,6.12,0,0,0-.29,1.84,2.77,2.77,0,0,0,.29,1.48,14.39,14.39,0,0,0-.07,2.58,13.37,13.37,0,0,1-.07,2.43v3.17c0,1.43,0,2.85.07,4.28s.12,2.67.22,3.76.24,1.62.44,1.62h.15a14.91,14.91,0,0,0,1.4,1.25c.44.34.91.71,1.4,1.11a6.84,6.84,0,0,1,1.62-.15,12.54,12.54,0,0,1,3.1.37,12.42,12.42,0,0,0,2.95.37,4.61,4.61,0,0,0,1.4-.22,4.33,4.33,0,0,1,1.4-.23,1.73,1.73,0,0,1,.66.15,2.18,2.18,0,0,0,.82.15.82.82,0,0,0,.29-.07.55.55,0,0,1,.29-.08,5.14,5.14,0,0,0,2.07.44,10.64,10.64,0,0,0,2.8-.36,10.88,10.88,0,0,1,3-.37,8.45,8.45,0,0,1,1.77.14h.44a4.33,4.33,0,0,1,1.4.23,4.66,4.66,0,0,0,1.4.22,1.3,1.3,0,0,0,1.11-.52c.24-.35.76-.52,1.55-.52h1a2.41,2.41,0,0,0,1.33-.29,32.8,32.8,0,0,0,5.31.44c.78,0,1.57,0,2.36-.07s1.57-.08,2.35-.08h1.77a4.52,4.52,0,0,0,1.92-.29,1.19,1.19,0,0,0,.89.29h5.89c1.58,0,3.17.08,4.8.23s3.12.22,4.49.22a4.59,4.59,0,0,0,1.33-.3,7.68,7.68,0,0,0,1.77-.88,6.9,6.9,0,0,0,1.55-1.4,2.85,2.85,0,0,0,.66-1.85,2.5,2.5,0,0,0-.15-1,8.67,8.67,0,0,1,.23-2,10,10,0,0,0,.22-2.14,3.9,3.9,0,0,0-.15-1.1,4,4,0,0,1-.15-1.11,9.43,9.43,0,0,1,.15-1.7,9.16,9.16,0,0,0,.15-1.69,4,4,0,0,0-.3-1.48,3.51,3.51,0,0,1-.29-1.32,3.69,3.69,0,0,1,.37-1.55A3.83,3.83,0,0,0,681.89,261.67Z"/><rect class="cls-2" x="364.88" y="216.41" width="19.98" height="19.98" transform="translate(-50.29 331.38) rotate(-45)"/><rect class="cls-2" x="190.21" y="216.41" width="19.98" height="19.98" transform="translate(-101.45 207.87) rotate(-45)"/><rect class="cls-2" x="565.88" y="216.41" width="19.98" height="19.98" transform="translate(8.58 473.51) rotate(-45)"/></g></g></g></svg>